<?xml version="1.0" encoding="UTF-8"?>
<svg viewBox="0 0 400 400" xmlns="http://www.w3.org/2000/svg" role="img" aria-labelledby="title desc">
  <title id="title">OmniVia icon</title>
  <desc id="desc">A brick-colored rounded square with two cream concentric path rings.</desc>
  <rect x="0" y="0" width="400" height="400" rx="112" ry="112" fill="#852520"/>
  <path d="M200,326c-69.5,0-126-56.5-126-126s56.5-126,126-126,126,56.5,126,126-56.5,126-126,126ZM200,96c-57.3,0-104,46.7-104,104s46.7,104,104,104,104-46.7,104-104-46.7-104-104-104Z" fill="#EDE4D5"/>
  <path d="M200,121c-43.6,0-79,35.4-79,79s35.4,79,79,79,79-35.4,79-79-35.4-79-79-79ZM200,261c-33.6,0-61-27.4-61-61s27.4-61,61-61,61,27.4,61,61-27.4,61-61,61Z" fill="#EDE4D5" opacity="0.6"/>
</svg>
