<?xml version="1.0" encoding="UTF-8"?>
<svg id="Layer_1" xmlns="http://www.w3.org/2000/svg" version="1.1" viewBox="0 0 600 160">
  <!-- Generator: Adobe Illustrator 29.8.2, SVG Export Plug-In . SVG Version: 2.1.1 Build 3)  -->
  <defs>
    <style>
      .st0 {
        opacity: .6;
      }

      .st0, .st1 {
        isolation: isolate;
      }

      .st0, .st2 {
        fill: #ede4d5;
      }

      .st3 {
        fill: #fff;
      }

      .st4 {
        fill: #852520;
      }

      .st5 {
        fill: #1c1a17;
      }
    </style>
  </defs>
  <rect class="st3" width="600" height="160"/>
  <g>
    <g>
      <rect class="st4" x="66.3" y="20" width="120" height="120" rx="34" ry="34"/>
      <g>
        <path class="st2" d="M126.3,117.8c-20.9,0-37.8-17-37.8-37.8s17-37.8,37.8-37.8,37.8,17,37.8,37.8-17,37.8-37.8,37.8ZM126.3,48.8c-17.2,0-31.2,14-31.2,31.2s14,31.2,31.2,31.2,31.2-14,31.2-31.2-14-31.2-31.2-31.2Z"/>
        <path class="st0" d="M126.3,56.3c-13.1,0-23.7,10.6-23.7,23.7s10.6,23.7,23.7,23.7,23.7-10.6,23.7-23.7-10.6-23.7-23.7-23.7ZM126.3,98.3c-10.1,0-18.3-8.2-18.3-18.3s8.2-18.3,18.3-18.3,18.3,8.2,18.3,18.3-8.2,18.3-18.3,18.3Z"/>
      </g>
    </g>
    <g class="st1">
      <g class="st1">
        <path class="st5" d="M261.6,60.4c2.4,2.5,4.3,5.5,5.6,9,1.3,3.5,2,7.4,2,11.7s-.7,8.2-2.1,11.7-3.3,6.5-5.7,9c-2.4,2.4-5.1,4.3-8.2,5.6s-6.4,2-10,2-7.2-.7-10.4-2.1c-3.2-1.4-5.9-3.4-8.2-5.9-2.3-2.5-4.1-5.5-5.4-9-1.3-3.5-2-7.3-2-11.3s.7-8.3,2.1-11.8c1.4-3.4,3.3-6.4,5.7-8.9,2.4-2.5,5.2-4.4,8.3-5.7s6.5-2,9.9-2,7,.7,10.1,2c3.2,1.3,5.9,3.2,8.2,5.7ZM256,98.7c1.4-2.3,2.5-4.9,3.1-7.8s1-6.2,1-9.8-.4-7.1-1.1-10.2-1.8-5.7-3.2-7.9c-1.4-2.2-3.1-3.8-5.3-5-2.1-1.2-4.5-1.8-7.2-1.8s-5.6.7-7.8,2.1-3.9,3.3-5.2,5.6c-1.3,2.2-2.2,4.8-2.8,7.8-.6,3-.9,6.1-.9,9.4s.3,7,1,9.9c.7,2.9,1.7,5.6,3.1,7.8,1.4,2.2,3.1,4,5.2,5.2,2.1,1.3,4.6,1.9,7.5,1.9s5.2-.6,7.4-1.9c2.2-1.3,4-3,5.3-5.3Z"/>
        <path class="st5" d="M337.8,108h-18.3v-2.5c.6,0,1.2-.1,1.8-.2.6,0,1.1-.2,1.6-.3.7-.2,1.2-.6,1.6-1.2.3-.6.5-1.3.5-2.2v-19.4c0-2.6-.6-4.7-1.8-6.1-1.2-1.4-2.7-2.2-4.5-2.2s-2.4.2-3.5.6c-1.1.4-2.1.9-3,1.6-.7.6-1.4,1.2-1.8,1.8-.5.6-.9,1.2-1.1,1.6v21.7c0,.9.2,1.6.5,2.2.3.6.8,1,1.6,1.3.6.2,1.1.4,1.6.5.5.1,1.1.2,1.8.2v2.5h-17.9v-2.5c.6,0,1.1-.1,1.7-.2.5,0,1-.2,1.5-.3.7-.2,1.2-.6,1.6-1.2.3-.6.5-1.3.5-2.2v-19.4c0-2.6-.6-4.7-1.8-6.1-1.2-1.4-2.7-2.2-4.5-2.2s-2.4.2-3.5.6c-1.1.4-2.1.9-3,1.6-.7.6-1.4,1.2-1.9,1.9-.5.7-.9,1.2-1.1,1.6v21.5c0,.9.2,1.6.5,2.2.4.6.9,1,1.6,1.3.5.3,1.1.4,1.6.6.6.1,1.2.2,1.9.3v2.5h-18.2v-2.5c.6,0,1.2-.1,1.8-.2.6,0,1.2-.2,1.6-.3.7-.2,1.2-.6,1.6-1.2s.5-1.3.5-2.2v-23.3c0-.8-.2-1.5-.6-2.2-.4-.6-.9-1.2-1.5-1.7-.5-.3-1.1-.6-1.8-.7-.7-.2-1.4-.3-2.2-.4v-2.5l12.6-.8.5.5v5.4h.3c.6-.6,1.4-1.4,2.3-2.2s1.8-1.6,2.6-2.1c.9-.6,2-1.1,3.3-1.5s2.8-.6,4.3-.6c2.4,0,4.5.7,6.3,2s3,2.9,3.8,4.7c.9-.9,1.7-1.7,2.4-2.3.7-.7,1.6-1.4,2.8-2.2,1-.7,2.1-1.2,3.4-1.6s2.8-.6,4.4-.6c3.2,0,5.7,1,7.5,3.1,1.9,2.1,2.8,5.3,2.8,9.6v19.1c0,.9.2,1.6.5,2.2.3.6.8,1,1.6,1.3.6.2,1.2.4,1.7.5.6.1,1.2.2,1.9.2v2.5Z"/>
        <path class="st5" d="M382.3,108h-18.4v-2.5c.6,0,1.2-.1,1.9-.2.7,0,1.3-.2,1.7-.3.7-.2,1.2-.6,1.6-1.2.3-.6.5-1.3.5-2.2v-19.3c0-2.7-.6-4.7-1.9-6.2-1.3-1.4-2.8-2.2-4.6-2.2s-2.6.2-3.7.6c-1.1.4-2.1.9-3,1.5-.8.6-1.5,1.2-2,1.9-.5.7-.9,1.2-1.1,1.6v21.6c0,.9.2,1.6.5,2.1.4.6.9,1,1.6,1.3.5.3,1.1.4,1.7.6.6.1,1.3.2,1.9.3v2.5h-18.4v-2.5c.6,0,1.2-.1,1.8-.2.6,0,1.2-.2,1.6-.3.7-.2,1.2-.6,1.6-1.2s.5-1.3.5-2.2v-23.2c0-.9-.2-1.7-.6-2.4-.4-.7-.9-1.3-1.5-1.8-.5-.3-1.1-.5-1.7-.7-.7-.1-1.4-.2-2.1-.3v-2.5l12.5-.8.5.5v5.3h.2c.6-.6,1.4-1.3,2.3-2.2.9-.8,1.8-1.5,2.6-2.1.9-.6,2.1-1.1,3.4-1.5s2.8-.6,4.4-.6c3.6,0,6.3,1.1,8,3.4,1.7,2.2,2.6,5.2,2.6,9v19.5c0,.9.2,1.6.5,2.2s.8,1,1.6,1.3c.6.3,1.1.4,1.6.5.4.1,1.1.2,1.8.2v2.5Z"/>
        <path class="st5" d="M403.6,108h-18.1v-2.5c.6,0,1.2-.1,1.8-.2.6,0,1.2-.2,1.6-.3.7-.2,1.2-.6,1.6-1.2s.5-1.3.5-2.2v-23.2c0-.8-.2-1.6-.6-2.2s-.9-1.2-1.5-1.7c-.5-.3-1.2-.6-2.1-.8-.9-.2-1.8-.3-2.5-.4v-2.5l13.3-.8.5.5v30.6c0,.9.2,1.6.5,2.2.3.6.9,1,1.6,1.3.6.2,1.1.4,1.6.6.5.1,1.1.2,1.8.3v2.5ZM398.8,55.2c0,1.4-.5,2.7-1.4,3.8s-2.1,1.6-3.5,1.6-2.4-.5-3.4-1.5c-1-1-1.4-2.2-1.4-3.5s.5-2.6,1.4-3.7,2.1-1.6,3.4-1.6,2.6.5,3.6,1.5c.9,1,1.4,2.1,1.4,3.4Z"/>
      </g>
      <g class="st1">
        <path class="st4" d="M465,57c-.8,0-1.6.2-2.4.5s-1.5.6-2.4,1.1c-1.1.6-1.9,1.3-2.5,2-.6.7-1.2,1.7-1.8,3-.8,1.8-1.9,4.3-3.3,7.7-1.4,3.4-3,7.2-4.9,11.5-1.6,3.9-3.4,8.1-5.3,12.7-1.9,4.6-3.7,9-5.4,13.2h-7.7c-3.6-8.7-7.2-17.6-10.9-26.5s-6.3-15.2-7.8-18.7c-.6-1.3-1.1-2.2-1.7-2.9-.5-.6-1.4-1.3-2.6-2-.9-.5-1.6-.8-2.3-1-.7-.2-1.5-.4-2.6-.5v-3h29.3v2.9c-2.7.3-4.6.7-5.6,1s-1.5.8-1.5,1.4,0,.6.1.9c0,.3.2.7.4,1.3.8,2.2,2.3,5.9,4.4,10.9s5.3,12.8,9.5,23.2c2.6-6.3,4.7-11.7,6.4-16,1.7-4.4,3.2-8.2,4.5-11.6.6-1.6,1.2-3.1,1.6-4.5.4-1.4.6-2.5.6-3.2s-.6-1.5-1.8-2c-1.2-.5-3.3-.9-6.5-1.2v-3h21.9v3Z"/>
        <path class="st4" d="M488.2,108h-24.1v-2.8c.7,0,1.3-.1,1.9-.2s1.2-.2,1.6-.4c.8-.3,1.4-.7,1.7-1.3.3-.6.5-1.3.5-2.3v-22.2c0-.9-.2-1.7-.6-2.3-.4-.7-.9-1.2-1.5-1.6s-1.1-.6-2.1-.9c-.9-.3-1.8-.5-2.5-.5v-2.8l18.7-1,.6.6v30.2c0,.9.2,1.6.6,2.3s.9,1.1,1.6,1.4c.5.2,1.1.4,1.7.6s1.2.3,1.9.4v2.8ZM482.6,56.1c0,1.9-.7,3.6-2.2,4.9-1.5,1.4-3.2,2-5.3,2s-3.8-.7-5.3-2c-1.5-1.4-2.2-3-2.2-4.9s.7-3.6,2.2-5,3.3-2.1,5.3-2.1,3.8.7,5.3,2.1c1.5,1.4,2.2,3,2.2,5Z"/>
        <path class="st4" d="M533.7,107.2c-1.1.5-2.4.9-4,1.3s-3.1.6-4.8.6c-3.1,0-5.4-.5-6.9-1.4-1.5-.9-2.5-2.3-3-4h-.2c-.9.9-1.7,1.6-2.5,2.2s-1.7,1.1-2.6,1.6c-1.2.6-2.3,1-3.5,1.3-1.1.3-2.7.4-4.6.4-2.9,0-5.5-.9-7.6-2.6-2.1-1.7-3.1-4-3.1-6.9s.2-3.1.7-4.2c.5-1.2,1.1-2.2,1.9-3.1.8-.8,1.6-1.5,2.7-2s2.1-1,3.3-1.5c2.3-.8,5-1.7,8.2-2.6,3.2-.9,5.5-1.7,7-2.4v-3.7c0-.6,0-1.5-.2-2.5-.1-1-.3-1.9-.6-2.6-.4-.8-.9-1.5-1.7-2.1s-1.8-.8-3-.8-2.1.2-2.8.5c-.8.3-1.4.6-1.8,1,0,.5.3,1.3.6,2.3s.5,2,.5,3-.1,1-.3,1.6c-.2.6-.6,1.2-1,1.5-.6.5-1.2.9-2,1.2-.7.3-1.8.4-3.3.4-2.1,0-3.8-.5-4.9-1.5-1.1-1-1.6-2.4-1.6-4s.6-2.7,1.7-3.8,2.5-2.1,4.1-2.8c1.6-.8,3.4-1.4,5.5-1.8,2.1-.4,4-.6,5.8-.6s4.7.1,6.8.4,3.9.9,5.6,1.8c1.6.9,2.8,2.2,3.8,3.9.9,1.7,1.4,3.9,1.4,6.6s0,6.3-.2,10.2c-.1,3.9-.2,6.5-.2,7.8s.2,2,.5,2.7c.3.7.9,1.2,1.6,1.5.4.2,1.1.3,2,.4.9,0,1.8,0,2.5,0v2.8ZM514.9,87.4c-1.4.5-2.8,1-4.2,1.7-1.4.6-2.5,1.3-3.4,2-.9.7-1.7,1.6-2.2,2.7-.5,1.1-.8,2.4-.8,3.9s.5,3.4,1.4,4.3c.9.9,2,1.3,3.3,1.3s2.6-.3,3.5-.9c.9-.6,1.7-1.3,2.4-2.1l.2-12.9Z"/>
      </g>
    </g>
  </g>
</svg>